# Blender 4.1.1
# www.blender.org
mtllib shell.mtl
o shell
v 0.000000 -2.999997 40.555553
v 136.000000 2.999999 -15.444447
v 84.000000 -94.000000 11.555560
v 0.000000 -116.000000 34.555561
v -84.000000 -94.000000 11.555560
v -136.000000 2.999999 -15.444447
v -69.000000 79.000000 -20.444452
v 0.000000 143.000000 -26.444458
v 69.000000 79.000000 -20.444452
vn -0.0000 0.1911 0.9816
vn 0.3338 0.0078 0.9426
vn 0.3646 0.2080 0.9077
vn 0.0001 -0.0530 0.9986
vn 0.3338 0.0077 0.9426
vn -0.3338 0.0077 0.9426
vn -0.0001 -0.0530 0.9986
vn -0.3646 0.2080 0.9077
vn -0.3338 0.0078 0.9426
vn -0.3164 0.3803 0.8691
vn -0.3646 0.2080 0.9076
vn -0.0001 0.4171 0.9089
vn 0.3164 0.3803 0.8691
vn 0.0001 0.4171 0.9089
vn -0.0000 0.1912 0.9816
vn 0.3646 0.2080 0.9076
s 0
f 1//1 3//2 2//3
f 1//1 4//4 3//5
f 1//1 5//6 4//7
f 1//1 6//8 5//9
f 1//1 7//10 6//11
f 1//1 8//12 7//10
f 1//1 9//13 8//14
f 1//15 2//16 9//13
