ply
format ascii 1.0
comment Turtlepp-UpHead.ply
comment v0.z:  64 = 488-424
comment v5.z: 113 = 488-375 == v11
comment v6.z: 107 = 488-381 == v10
comment v7.z: 101 = 488-387 == v09
comment v8.z:  77 = 488-411
comment v17.z: 64 = 488-424 == v19
comment v19: 398	289	64
comment	v19: 398	309	30 NOVO
comment	vu.z: 43= 488-445
comment	vv.z: 62= 488-426
element vertex 24
property float x
property float y
property float z
element face 29
property list uchar int vertex_indices
end_header
432	339	64
485	352	0
493	354	0
481	340	0
479	340	0
464	280	113
449	233	107
444	222	101
432	212	 77
420	222	101
415	233	107
400	280	113
384	340	0
382	340	0
371	354	0
379	352	0
466	309	30
468	255	64
396	255	64
398	309	30
478	310	9
386	310	9
432	212	 43
432	212	 62
3	0	11	5
5	0	5	4	3	1
4	11	10	6	5
4	6	10	9	7
3	7	9	8
5	0	15	13	12	11
3	1	3	2
3	13	15	14
3	5	6	17
3	6	7	17
3	7	8	17
3	5	17	16
3	4	5	16
3	16	17	20
3	4	16	20
3	10	11	18
3	 9	10	18
3	 8	9	18
3	11	19	18
3	11	12	19
3	18	19	21
3	12	21	19
4	4	20	21	12
3	17	18	23
3	17	23	22
3	18	22	23
3	17	22	20
3	18	21	22
3	22	21	20