ply
format ascii 1.0
comment Turtle-Up: XY0
comment Shell v0.z:488-397=91 ; v1.z:35=488-453 ; v2.z:62=488-426 ; v3.z:85=488-403
comment                         v4.z:62=488-426 ; v5.z:35=488-453 ; v6.z:30=488-458 ; v7.z:24=488-464 ;
element vertex 9
property float x
property float y
property float z
element face 8
property list uchar int vertex_indices
end_header
432	452	91
568	458	35
516	361	62
432	339	85
348	361	62
296	458	35
363	534	30
432	598	24
501	534	30
3	0	2	1
3	0	3	2
3	0	4	3
3	0	5	4
3	0	6	5
3	0	7	6
3	0	8	7
3	0	1	8
