####
#
# OBJ File Generated by Meshlab
#
####
# Object cabeca.obj
#
# Vertices: 72
# Faces: 26
#
####
vn 4.9012370 -21.3827896 0.4679131
v 1.6094379 0.0000000 0.0000000
vn 2.9306207 0.3654172 -0.0341259
v 1.3862944 2.0000000 0.0000000
vn 3.9130270 -21.4944839 0.0802602
v 1.0986123 4.0000000 0.0000000
vn 4.6131268 -0.3827887 1.7205026
v 1.5545976 0.0000000 0.4165532
vn 2.8395944 0.3654172 0.7255375
v 1.3390576 2.0000000 0.3587994
vn 3.7589209 -0.4944842 1.0902915
v 1.0611780 4.0000000 0.2843418
vn 4.0106392 -1.3827887 2.8558431
v 1.3938141 0.0000000 0.8047190
vn 2.5550547 0.3654172 1.4357563
v 1.2005662 2.0000000 0.6931472
vn 3.3486505 -1.4944842 2.0260210
v 0.9514261 4.0000000 0.5493062
vn 3.1348338 -1.3827885 3.7965622
v 1.1380445 0.0000000 1.1380445
vn 2.0963924 0.3654173 2.0481310
v 0.9802581 2.0000000 0.9802581
vn 2.7101755 -1.4944842 2.8236806
v 0.7768362 4.0000000 0.7768362
vn 2.0453939 -1.3827885 4.4785523
v 0.8047189 0.0000000 1.3938142
vn 1.4948642 0.3654173 2.5209289
v 0.6931471 2.0000000 1.2005662
vn 1.8870063 -1.4944842 3.4289110
v 0.5493061 4.0000000 0.9514262
vn 0.8165641 -1.3827887 4.8553362
v 0.4165532 0.0000000 1.5545976
vn 0.7914633 0.3654172 2.8219297
v 0.3587994 2.0000000 1.3390576
vn 0.9352403 -1.4944842 3.8004670
v 0.2843418 4.0000000 1.0611780
vn -0.4679132 -1.3827887 4.9012370
v -0.0000001 0.0000000 1.6094379
vn 0.0341258 0.3654172 2.9306207
v -0.0000001 2.0000000 1.3862944
vn -0.0802604 -1.4944842 3.9130270
v -0.0000000 4.0000000 1.0986123
vn -1.7205026 -1.3827887 4.6131268
v -0.4165532 0.0000000 1.5545976
vn -0.7255375 0.3654172 2.8395944
v -0.3587994 2.0000000 1.3390576
vn -1.0902914 -1.4944842 3.7589211
v -0.2843418 4.0000000 1.0611780
vn -2.8558435 -1.3827887 4.0106387
v -0.8047191 0.0000000 1.3938141
vn -1.4357563 0.3654172 2.5550547
v -0.6931472 2.0000000 1.2005662
vn -2.0260212 -1.4944842 3.3486502
v -0.5493062 4.0000000 0.9514261
vn -3.7965624 -1.3827887 3.1348338
v -1.1380445 0.0000000 1.1380445
vn -2.0481312 0.3654173 2.0963922
v -0.9802581 2.0000000 0.9802581
vn -2.8236809 -1.4944842 2.7101753
v -0.7768362 4.0000000 0.7768362
vn -4.4785523 -1.3827887 2.0453939
v -1.3938141 0.0000000 0.8047191
vn -2.5209289 0.3654172 1.4948640
v -1.2005662 2.0000000 0.6931472
vn -3.4289110 -1.4944842 1.8870062
v -0.9514261 4.0000000 0.5493062
vn -4.8553362 -1.3827887 0.8165640
v -1.5545976 0.0000000 0.4165533
vn -2.8219295 0.3654172 0.7914634
v -1.3390576 2.0000000 0.3587995
vn -3.8004670 -1.4944842 0.9352403
v -1.0611780 4.0000000 0.2843419
vn -4.9012370 -1.3827887 -0.4679134
v -1.6094379 0.0000000 -0.0000001
vn -2.9306207 0.3654172 0.0341257
v -1.3862944 2.0000000 -0.0000001
vn -3.9130270 -1.4944842 -0.0802606
v -1.0986123 4.0000000 -0.0000001
vn -4.6131263 -1.3827887 -1.7205033
v -1.5545976 0.0000000 -0.4165532
vn -2.8395944 0.3654172 -0.7255378
v -1.3390576 2.0000000 -0.3587994
vn -3.7589209 -1.4944842 -1.0902919
v -1.0611780 4.0000000 -0.2843418
vn -4.0106392 -1.3827887 -2.8558428
v -1.3938141 0.0000000 -0.8047189
vn -2.5550547 0.3654172 -1.4357564
v -1.2005662 2.0000000 -0.6931471
vn -3.3486507 -1.4944842 -2.0260210
v -0.9514261 4.0000000 -0.5493061
vn -3.1348333 -1.3827885 -3.7965622
v -1.1380446 0.0000000 -1.1380444
vn -2.0963926 0.3654172 -2.0481308
v -0.9802582 2.0000000 -0.9802580
vn -2.7101755 -1.4944842 -2.8236802
v -0.7768363 4.0000000 -0.7768362
vn -2.0453944 -1.3827885 -4.4785523
v -0.8047189 0.0000000 -1.3938142
vn -1.4948643 0.3654173 -2.5209289
v -0.6931471 2.0000000 -1.2005662
vn -1.8870063 -1.4944842 -3.4289110
v -0.5493060 4.0000000 -0.9514262
vn -0.8165637 -1.3827885 -4.8553362
v -0.4165531 0.0000000 -1.5545977
vn -0.7914634 0.3654173 -2.8219297
v -0.3587993 2.0000000 -1.3390576
vn -0.9352403 -1.4944842 -3.8004670
v -0.2843417 4.0000000 -1.0611781
vn 0.4679134 -1.3827887 -4.9012370
v 0.0000000 0.0000000 -1.6094379
vn -0.0341255 0.3654173 -2.9306207
v 0.0000000 2.0000000 -1.3862944
vn 0.0802607 -1.4944842 -3.9130273
v 0.0000000 4.0000000 -1.0986123
vn 1.7205029 -1.3827885 -4.6131268
v 0.4165531 0.0000000 -1.5545976
vn 0.7255377 0.3654172 -2.8395946
v 0.3587993 2.0000000 -1.3390576
vn 1.0902916 -1.4944842 -3.7589211
v 0.2843418 4.0000000 -1.0611780
vn 2.8558424 -1.3827885 -4.0106397
v 0.8047189 0.0000000 -1.3938142
vn 1.4357561 0.3654173 -2.5550551
v 0.6931471 2.0000000 -1.2005662
vn 2.0260205 -1.4944842 -3.3486509
v 0.5493060 4.0000000 -0.9514262
vn 3.7965617 -1.3827887 -3.1348348
v 1.1380442 0.0000000 -1.1380447
vn 2.0481305 0.3654173 -2.0963926
v 0.9802580 2.0000000 -0.9802583
vn 2.8236799 -1.4944842 -2.7101760
v 0.7768361 4.0000000 -0.7768363
vn 4.4785519 -1.3827887 -2.0453949
v 1.3938140 0.0000000 -0.8047193
vn 2.5209284 0.3654172 -1.4948647
v 1.2005661 2.0000000 -0.6931474
vn 3.4289107 -1.4944842 -1.8870068
v 0.9514261 4.0000000 -0.5493063
vn 4.8553362 -0.3827886 -0.8165649
v 1.5545976 0.0000000 -0.4165536
vn 2.8219295 0.3654173 -0.7914641
v 1.3390574 2.0000000 -0.3587997
vn 3.8004665 -0.4944842 -0.9352411
v 1.0611780 4.0000000 -0.2843421
# 72 vertices, 0 vertices normals

f 2//2 3//3 6//6 5//5 4//4 1//1
f 5//5 6//6 9//9 8//8 7//7 4//4
f 8//8 9//9 12//12 11//11 10//10 7//7
f 11//11 12//12 15//15 14//14 13//13 10//10
f 14//14 15//15 18//18 17//17 16//16 13//13
f 17//17 18//18 21//21 20//20 19//19 16//16
f 20//20 21//21 24//24 23//23 22//22 19//19
f 23//23 24//24 27//27 26//26 25//25 22//22
f 26//26 27//27 30//30 29//29 28//28 25//25
f 29//29 30//30 33//33 32//32 31//31 28//28
f 32//32 33//33 36//36 35//35 34//34 31//31
f 35//35 36//36 39//39 38//38 37//37 34//34
f 38//38 39//39 42//42 41//41 40//40 37//37
f 41//41 42//42 45//45 44//44 43//43 40//40
f 44//44 45//45 48//48 47//47 46//46 43//43
f 47//47 48//48 51//51 50//50 49//49 46//46
f 50//50 51//51 54//54 53//53 52//52 49//49
f 53//53 54//54 57//57 56//56 55//55 52//52
f 56//56 57//57 60//60 59//59 58//58 55//55
f 59//59 60//60 63//63 62//62 61//61 58//58
f 62//62 63//63 66//66 65//65 64//64 61//61
f 65//65 66//66 69//69 68//68 67//67 64//64
f 68//68 69//69 72//72 71//71 70//70 67//67
f 71//71 72//72 3//3 2//2 1//1 70//70
f 4//4 7//7 10//10 13//13 16//16 19//19 22//22 25//25 28//28 31//31 34//34 37//37 40//40 43//43 46//46 49//49 52//52 55//55 58//58 61//61 64//64 67//67 70//70 1//1
f 6//6 9//9 12//12 15//15 18//18 21//21 24//24 27//27 30//30 33//33 36//36 39//39 42//42 45//45 48//48 51//51 54//54 57//57 60//60 63//63 66//66 69//69 72//72 3//3
# 26 faces, 0 coords texture

# End of File
