####
#
# OBJ File Generated by Meshlab
#
####
# Object pes1.obj
#
# Vertices: 72
# Faces: 26
#
####
vn -4.5965676 -1.5361780 21.7070637
v 0.8047190 0.0000000 0.0000000
vn -2.8092816 -0.2801512 -0.1774633
v 0.6931472 0.0000000 2.0000000
vn -3.7194977 -0.7026237 21.7607346
v 0.5493062 0.0000000 4.0000000
vn -3.5044212 -3.3636842 0.6945827
v 0.7772988 0.1621194 0.0000000
vn -2.3372386 -1.5883267 -0.1713724
v 0.6695288 0.1185768 2.0000000
vn -2.9686344 -2.3992400 0.7641438
v 0.5305890 0.0524710 4.0000000
vn -2.3837366 -4.2715721 1.6460036
v 0.6969070 0.3131907 0.0000000
vn -1.6399947 -2.3556631 -0.1916130
v 0.6002831 0.2290727 2.0000000
vn -2.0093312 -3.3161378 1.7324849
v 0.4757131 0.1013663 4.0000000
vn -1.4689556 -4.6848702 1.5870261
v 0.5690222 0.4429186 0.0000000
vn -1.0413738 -2.7047052 -0.2258243
v 0.4901291 0.3239577 2.0000000
vn -1.2291365 -3.7072034 1.6837863
v 0.3884181 0.1433536 4.0000000
vn -0.6931180 -4.8721628 1.5363445
v 0.4023595 0.5424623 0.0000000
vn -0.5526621 -2.8630264 -0.2597387
v 0.3465736 0.3967656 2.0000000
vn -0.6055497 -3.8725908 1.6370776
v 0.2746530 0.1755715 4.0000000
vn 0.0225053 -4.9311786 1.5034993
v 0.2082766 0.6050380 0.0000000
vn -0.1217894 -2.9269753 -0.2853850
v 0.1793997 0.4425344 2.0000000
vn -0.0569858 -3.9289038 1.6029755
v 0.1421709 0.1958246 4.0000000
vn 0.7290998 -4.8870025 1.4925201
v -0.0000000 0.6263815 0.0000000
vn 0.2887678 -2.9271832 -0.2989829
v -0.0000000 0.4581454 2.0000000
vn 0.4708473 -3.9096594 1.5864507
v -0.0000000 0.2027325 4.0000000
vn 1.4620380 -4.7295523 1.5038218
v -0.2082766 0.6050380 0.0000000
vn 0.7045160 -2.8665991 -0.2992332
v -0.1793997 0.4425344 2.0000000
vn 1.0137645 -3.8134813 1.5889642
v -0.1421709 0.1958246 4.0000000
vn 2.2505386 -4.4172635 1.5348332
v -0.4023595 0.5424622 0.0000000
vn 1.1464710 -2.7292547 -0.2866865
v -0.3465736 0.3967655 2.0000000
vn 1.6006194 -3.6135170 1.6092718
v -0.2746531 0.1755715 4.0000000
vn 3.1196544 -3.8557124 1.5800738
v -0.5690222 0.4429186 0.0000000
vn 1.6351089 -2.4724054 -0.2636218
v -0.4901291 0.3239577 2.0000000
vn 2.2589478 -3.2440100 1.6436141
v -0.3884181 0.1433536 4.0000000
vn 4.0594578 -2.8332152 1.6311826
v -0.6969070 0.3131908 0.0000000
vn 2.1811090 -1.9952605 -0.2340670
v -0.6002831 0.2290727 2.0000000
vn 2.9993887 -2.5521271 1.6857738
v -0.4757131 0.1013663 4.0000000
vn 4.8138499 -0.9701277 1.6781151
v -0.7772988 0.1621195 0.0000000
vn 2.6961334 -1.0942750 -0.2031484
v -0.6695288 0.1185768 2.0000000
vn 3.6743977 -1.2383389 1.7280948
v -0.5305890 0.0524711 4.0000000
vn 4.5965672 1.5361791 1.7070637
v -0.8047190 -0.0000001 0.0000000
vn 2.8092813 0.2801523 -0.1774633
v -0.6931472 -0.0000000 2.0000000
vn 3.7194972 0.7026250 1.7607341
v -0.5493062 -0.0000000 4.0000000
vn 3.5044208 3.3636847 1.6945827
v -0.7772988 -0.1621195 0.0000000
vn 2.3372381 1.5883271 -0.1713724
v -0.6695288 -0.1185768 2.0000000
vn 2.9686341 2.3992405 1.7641439
v -0.5305890 -0.0524710 4.0000000
vn 2.3837371 4.2715721 1.6460036
v -0.6969070 -0.3131907 0.0000000
vn 1.6399949 2.3556633 -0.1916130
v -0.6002831 -0.2290727 2.0000000
vn 2.0093312 3.3161380 1.7324849
v -0.4757131 -0.1013663 4.0000000
vn 1.4689565 4.6848698 1.5870260
v -0.5690223 -0.4429185 0.0000000
vn 1.0413744 2.7047052 -0.2258243
v -0.4901291 -0.3239577 2.0000000
vn 1.2291373 3.7072034 1.6837863
v -0.3884181 -0.1433536 4.0000000
vn 0.6931183 4.8721628 1.5363445
v -0.4023594 -0.5424623 0.0000000
vn 0.5526624 2.8630264 -0.2597387
v -0.3465735 -0.3967656 2.0000000
vn 0.6055500 3.8725910 1.6370776
v -0.2746530 -0.1755715 4.0000000
vn -0.0225061 4.9311786 1.5034992
v -0.2082765 -0.6050380 0.0000000
vn 0.1217892 2.9269753 -0.2853850
v -0.1793997 -0.4425345 2.0000000
vn 0.0569854 3.9289038 1.6029755
v -0.1421709 -0.1958246 4.0000000
vn -0.7291001 4.8870025 1.4925200
v 0.0000000 -0.6263815 0.0000000
vn -0.2887681 2.9271832 -0.2989830
v 0.0000000 -0.4581454 2.0000000
vn -0.4708478 3.9096594 1.5864506
v 0.0000000 -0.2027325 4.0000000
vn -1.4620378 4.7295518 1.5038218
v 0.2082766 -0.6050380 0.0000000
vn -0.7045161 2.8665991 -0.2992332
v 0.1793997 -0.4425344 2.0000000
vn -1.0137646 3.8134813 1.5889642
v 0.1421709 -0.1958246 4.0000000
vn -2.2505381 4.4172635 1.5348332
v 0.4023594 -0.5424623 0.0000000
vn -1.1464708 2.7292545 -0.2866865
v 0.3465735 -0.3967656 2.0000000
vn -1.6006191 3.6135168 1.6092719
v 0.2746530 -0.1755715 4.0000000
vn -3.1196542 3.8557134 1.5800738
v 0.5690221 -0.4429186 0.0000000
vn -1.6351089 2.4724057 -0.2636218
v 0.4901290 -0.3239577 2.0000000
vn -2.2589474 3.2440104 1.6436141
v 0.3884180 -0.1433536 4.0000000
vn -4.0594568 2.8332162 1.6311824
v 0.6969070 -0.3131908 0.0000000
vn -2.1811085 1.9952612 -0.2340670
v 0.6002830 -0.2290728 2.0000000
vn -2.9993882 2.5521281 1.6857738
v 0.4757130 -0.1013663 4.0000000
vn -4.8138494 0.9701304 0.6781150
v 0.7772988 -0.1621196 0.0000000
vn -2.6961331 1.0942764 -0.2031485
v 0.6695287 -0.1185769 2.0000000
vn -3.6743972 1.2383411 0.7280947
v 0.5305890 -0.0524711 4.0000000
# 72 vertices, 0 vertices normals

f 2//2 3//3 6//6 5//5 4//4 1//1
f 5//5 6//6 9//9 8//8 7//7 4//4
f 8//8 9//9 12//12 11//11 10//10 7//7
f 11//11 12//12 15//15 14//14 13//13 10//10
f 14//14 15//15 18//18 17//17 16//16 13//13
f 17//17 18//18 21//21 20//20 19//19 16//16
f 20//20 21//21 24//24 23//23 22//22 19//19
f 23//23 24//24 27//27 26//26 25//25 22//22
f 26//26 27//27 30//30 29//29 28//28 25//25
f 29//29 30//30 33//33 32//32 31//31 28//28
f 32//32 33//33 36//36 35//35 34//34 31//31
f 35//35 36//36 39//39 38//38 37//37 34//34
f 38//38 39//39 42//42 41//41 40//40 37//37
f 41//41 42//42 45//45 44//44 43//43 40//40
f 44//44 45//45 48//48 47//47 46//46 43//43
f 47//47 48//48 51//51 50//50 49//49 46//46
f 50//50 51//51 54//54 53//53 52//52 49//49
f 53//53 54//54 57//57 56//56 55//55 52//52
f 56//56 57//57 60//60 59//59 58//58 55//55
f 59//59 60//60 63//63 62//62 61//61 58//58
f 62//62 63//63 66//66 65//65 64//64 61//61
f 65//65 66//66 69//69 68//68 67//67 64//64
f 68//68 69//69 72//72 71//71 70//70 67//67
f 71//71 72//72 3//3 2//2 1//1 70//70
f 4//4 7//7 10//10 13//13 16//16 19//19 22//22 25//25 28//28 31//31 34//34 37//37 40//40 43//43 46//46 49//49 52//52 55//55 58//58 61//61 64//64 67//67 70//70 1//1
f 6//6 9//9 12//12 15//15 18//18 21//21 24//24 27//27 30//30 33//33 36//36 39//39 42//42 45//45 48//48 51//51 54//54 57//57 60//60 63//63 66//66 69//69 72//72 3//3
# 26 faces, 0 coords texture

# End of File
